<svg xmlns="http://www.w3.org/2000/svg" viewBox="0 0 1024 1024" width="1024" height="1024">
  <defs>
    <clipPath id="roundClip">
      <rect x="0" y="0" width="1024" height="1024" rx="228" ry="228"/>
    </clipPath>
  </defs>

  <!-- Scale icon to ~80% with transparent padding for macOS dock sizing -->
  <g transform="translate(100,100) scale(0.80469)">

    <!-- Rounded square background -->
    <rect x="0" y="0" width="1024" height="1024" rx="228" ry="228" fill="#f59e0b"/>

    <!-- Content group clipped to rounded rect -->
    <g clip-path="url(#roundClip)">

      <!-- Finder Eye - Top Left -->
      <g>
        <!-- Outer border -->
        <rect x="120" y="120" width="280" height="280" rx="40" ry="40" fill="white"/>
        <!-- Inner cutout -->
        <rect x="168" y="168" width="184" height="184" rx="24" ry="24" fill="#f59e0b"/>
        <!-- Center dot -->
        <rect x="224" y="224" width="72" height="72" rx="12" ry="12" fill="white"/>
      </g>

      <!-- Finder Eye - Top Right -->
      <g>
        <rect x="624" y="120" width="280" height="280" rx="40" ry="40" fill="white"/>
        <rect x="672" y="168" width="184" height="184" rx="24" ry="24" fill="#f59e0b"/>
        <rect x="728" y="224" width="72" height="72" rx="12" ry="12" fill="white"/>
      </g>

      <!-- Finder Eye - Bottom Left -->
      <g>
        <rect x="120" y="624" width="280" height="280" rx="40" ry="40" fill="white"/>
        <rect x="168" y="672" width="184" height="184" rx="24" ry="24" fill="#f59e0b"/>
        <rect x="224" y="728" width="72" height="72" rx="12" ry="12" fill="white"/>
      </g>

      <!-- Data dots (scattered in remaining areas) -->
      <!-- Row area between top eyes -->
      <rect x="440" y="148" width="48" height="48" rx="10" fill="white" opacity="0.85"/>
      <rect x="508" y="148" width="48" height="48" rx="10" fill="white" opacity="0.55"/>
      <rect x="440" y="216" width="48" height="48" rx="10" fill="white" opacity="0.55"/>
      <rect x="508" y="216" width="48" height="48" rx="10" fill="white" opacity="0.35"/>
      <rect x="440" y="284" width="48" height="48" rx="10" fill="white" opacity="0.45"/>
      <rect x="576" y="284" width="48" height="48" rx="10" fill="white" opacity="0.25"/>

      <!-- Below top-left eye, left column -->
      <rect x="148" y="440" width="48" height="48" rx="10" fill="white" opacity="0.65"/>
      <rect x="216" y="440" width="48" height="48" rx="10" fill="white" opacity="0.45"/>
      <rect x="148" y="508" width="48" height="48" rx="10" fill="white" opacity="0.45"/>
      <rect x="284" y="508" width="48" height="48" rx="10" fill="white" opacity="0.25"/>
      <rect x="148" y="576" width="48" height="48" rx="10" fill="white" opacity="0.35"/>

      <!-- Center data area -->
      <rect x="440" y="440" width="48" height="48" rx="10" fill="white" opacity="0.75"/>
      <rect x="508" y="440" width="48" height="48" rx="10" fill="white" opacity="0.45"/>
      <rect x="576" y="440" width="48" height="48" rx="10" fill="white" opacity="0.55"/>
      <rect x="440" y="508" width="48" height="48" rx="10" fill="white" opacity="0.35"/>
      <rect x="576" y="508" width="48" height="48" rx="10" fill="white" opacity="0.65"/>
      <rect x="508" y="576" width="48" height="48" rx="10" fill="white" opacity="0.45"/>
      <rect x="576" y="576" width="48" height="48" rx="10" fill="white" opacity="0.35"/>

      <!-- Right column -->
      <rect x="692" y="440" width="48" height="48" rx="10" fill="white" opacity="0.55"/>
      <rect x="760" y="440" width="48" height="48" rx="10" fill="white" opacity="0.35"/>
      <rect x="828" y="440" width="48" height="48" rx="10" fill="white" opacity="0.65"/>
      <rect x="692" y="508" width="48" height="48" rx="10" fill="white" opacity="0.35"/>
      <rect x="828" y="508" width="48" height="48" rx="10" fill="white" opacity="0.45"/>
      <rect x="692" y="576" width="48" height="48" rx="10" fill="white" opacity="0.55"/>
      <rect x="760" y="576" width="48" height="48" rx="10" fill="white" opacity="0.25"/>
      <rect x="828" y="576" width="48" height="48" rx="10" fill="white" opacity="0.55"/>

      <!-- Bottom right area -->
      <rect x="440" y="692" width="48" height="48" rx="10" fill="white" opacity="0.55"/>
      <rect x="508" y="692" width="48" height="48" rx="10" fill="white" opacity="0.35"/>
      <rect x="576" y="692" width="48" height="48" rx="10" fill="white" opacity="0.65"/>
      <rect x="692" y="692" width="48" height="48" rx="10" fill="white" opacity="0.45"/>
      <rect x="828" y="692" width="48" height="48" rx="10" fill="white" opacity="0.55"/>
      <rect x="440" y="760" width="48" height="48" rx="10" fill="white" opacity="0.35"/>
      <rect x="576" y="760" width="48" height="48" rx="10" fill="white" opacity="0.45"/>
      <rect x="692" y="760" width="48" height="48" rx="10" fill="white" opacity="0.55"/>
      <rect x="760" y="760" width="48" height="48" rx="10" fill="white" opacity="0.35"/>
      <rect x="828" y="760" width="48" height="48" rx="10" fill="white" opacity="0.65"/>
      <rect x="508" y="828" width="48" height="48" rx="10" fill="white" opacity="0.55"/>
      <rect x="576" y="828" width="48" height="48" rx="10" fill="white" opacity="0.35"/>
      <rect x="760" y="828" width="48" height="48" rx="10" fill="white" opacity="0.55"/>
      <rect x="828" y="828" width="48" height="48" rx="10" fill="white" opacity="0.45"/>

      <!-- Timing pattern hints (horizontal between top eyes) -->
      <rect x="440" y="352" width="48" height="48" rx="10" fill="white" opacity="0.3"/>
      <rect x="576" y="352" width="48" height="48" rx="10" fill="white" opacity="0.3"/>

      <!-- Timing pattern hints (vertical below top-left) -->
      <rect x="352" y="440" width="48" height="48" rx="10" fill="white" opacity="0.3"/>
      <rect x="352" y="576" width="48" height="48" rx="10" fill="white" opacity="0.3"/>

      <!-- Bottom-left area dots -->
      <rect x="284" y="692" width="48" height="48" rx="10" fill="white" opacity="0.25"/>
      <rect x="352" y="692" width="48" height="48" rx="10" fill="white" opacity="0.35"/>
      <rect x="284" y="760" width="48" height="48" rx="10" fill="white" opacity="0.45"/>
      <rect x="352" y="828" width="48" height="48" rx="10" fill="white" opacity="0.25"/>
    </g>
  </g>
</svg>
