<svg xmlns="http://www.w3.org/2000/svg" viewBox="0 0 512 512" width="512" height="512">
  <defs>
    <linearGradient id="brand" x1="0%" y1="0%" x2="100%" y2="100%">
      <stop offset="0%" stop-color="#f59e0b"/>
      <stop offset="100%" stop-color="#ef4444"/>
    </linearGradient>
    <linearGradient id="brandDark" x1="0%" y1="0%" x2="100%" y2="100%">
      <stop offset="0%" stop-color="#b45309"/>
      <stop offset="100%" stop-color="#b91c1c"/>
    </linearGradient>
    <linearGradient id="shine" x1="0%" y1="0%" x2="100%" y2="100%">
      <stop offset="0%" stop-color="#fcd34d"/>
      <stop offset="40%" stop-color="#f59e0b"/>
      <stop offset="100%" stop-color="#ef4444"/>
    </linearGradient>
    <linearGradient id="sparkGlow" x1="50%" y1="100%" x2="50%" y2="0%">
      <stop offset="0%" stop-color="#f59e0b"/>
      <stop offset="100%" stop-color="#fef3c7"/>
    </linearGradient>
    <clipPath id="roundClip">
      <rect x="32" y="32" width="448" height="448" rx="88" ry="88"/>
    </clipPath>
    <!-- Glow filter for sparks -->
    <filter id="glow" x="-50%" y="-50%" width="200%" height="200%">
      <feGaussianBlur stdDeviation="3" result="blur"/>
      <feMerge>
        <feMergeNode in="blur"/>
        <feMergeNode in="SourceGraphic"/>
      </feMerge>
    </filter>
  </defs>

  <!-- Background -->
  <rect x="32" y="32" width="448" height="448" rx="88" ry="88" fill="#0c0c10"/>

  <!-- QR dot grid texture (very subtle, background only) -->
  <g clip-path="url(#roundClip)" opacity="0.06">
    <!-- Row 1 -->
    <rect x="60" y="60" width="14" height="14" rx="3" fill="#fff"/>
    <rect x="82" y="60" width="14" height="14" rx="3" fill="#fff"/>
    <rect x="126" y="60" width="14" height="14" rx="3" fill="#fff"/>
    <rect x="170" y="60" width="14" height="14" rx="3" fill="#fff"/>
    <rect x="192" y="60" width="14" height="14" rx="3" fill="#fff"/>
    <rect x="258" y="60" width="14" height="14" rx="3" fill="#fff"/>
    <rect x="302" y="60" width="14" height="14" rx="3" fill="#fff"/>
    <rect x="346" y="60" width="14" height="14" rx="3" fill="#fff"/>
    <rect x="390" y="60" width="14" height="14" rx="3" fill="#fff"/>
    <rect x="434" y="60" width="14" height="14" rx="3" fill="#fff"/>
    <!-- Row 2 -->
    <rect x="60" y="82" width="14" height="14" rx="3" fill="#fff"/>
    <rect x="126" y="82" width="14" height="14" rx="3" fill="#fff"/>
    <rect x="214" y="82" width="14" height="14" rx="3" fill="#fff"/>
    <rect x="280" y="82" width="14" height="14" rx="3" fill="#fff"/>
    <rect x="346" y="82" width="14" height="14" rx="3" fill="#fff"/>
    <rect x="434" y="82" width="14" height="14" rx="3" fill="#fff"/>
    <!-- Row 3 -->
    <rect x="82" y="104" width="14" height="14" rx="3" fill="#fff"/>
    <rect x="148" y="104" width="14" height="14" rx="3" fill="#fff"/>
    <rect x="236" y="104" width="14" height="14" rx="3" fill="#fff"/>
    <rect x="302" y="104" width="14" height="14" rx="3" fill="#fff"/>
    <rect x="368" y="104" width="14" height="14" rx="3" fill="#fff"/>
    <rect x="412" y="104" width="14" height="14" rx="3" fill="#fff"/>
    <!-- Row 4 -->
    <rect x="60" y="126" width="14" height="14" rx="3" fill="#fff"/>
    <rect x="104" y="126" width="14" height="14" rx="3" fill="#fff"/>
    <rect x="170" y="126" width="14" height="14" rx="3" fill="#fff"/>
    <rect x="258" y="126" width="14" height="14" rx="3" fill="#fff"/>
    <rect x="324" y="126" width="14" height="14" rx="3" fill="#fff"/>
    <rect x="390" y="126" width="14" height="14" rx="3" fill="#fff"/>
    <!-- Rows scattered lower -->
    <rect x="60" y="390" width="14" height="14" rx="3" fill="#fff"/>
    <rect x="104" y="390" width="14" height="14" rx="3" fill="#fff"/>
    <rect x="192" y="390" width="14" height="14" rx="3" fill="#fff"/>
    <rect x="302" y="412" width="14" height="14" rx="3" fill="#fff"/>
    <rect x="368" y="390" width="14" height="14" rx="3" fill="#fff"/>
    <rect x="434" y="390" width="14" height="14" rx="3" fill="#fff"/>
    <rect x="60" y="412" width="14" height="14" rx="3" fill="#fff"/>
    <rect x="148" y="412" width="14" height="14" rx="3" fill="#fff"/>
    <rect x="236" y="412" width="14" height="14" rx="3" fill="#fff"/>
    <rect x="390" y="412" width="14" height="14" rx="3" fill="#fff"/>
    <rect x="82" y="434" width="14" height="14" rx="3" fill="#fff"/>
    <rect x="170" y="434" width="14" height="14" rx="3" fill="#fff"/>
    <rect x="258" y="434" width="14" height="14" rx="3" fill="#fff"/>
    <rect x="346" y="434" width="14" height="14" rx="3" fill="#fff"/>
    <rect x="434" y="434" width="14" height="14" rx="3" fill="#fff"/>
    <!-- Side columns -->
    <rect x="60" y="192" width="14" height="14" rx="3" fill="#fff"/>
    <rect x="60" y="236" width="14" height="14" rx="3" fill="#fff"/>
    <rect x="60" y="302" width="14" height="14" rx="3" fill="#fff"/>
    <rect x="60" y="346" width="14" height="14" rx="3" fill="#fff"/>
    <rect x="434" y="170" width="14" height="14" rx="3" fill="#fff"/>
    <rect x="434" y="214" width="14" height="14" rx="3" fill="#fff"/>
    <rect x="434" y="280" width="14" height="14" rx="3" fill="#fff"/>
    <rect x="434" y="346" width="14" height="14" rx="3" fill="#fff"/>
  </g>

  <!-- ==================== -->
  <!-- LARGE ANVIL (hero)   -->
  <!-- ==================== -->
  
  <!-- Anvil face / top surface (wide, the working surface) -->
  <rect x="124" y="210" width="264" height="42" rx="10" ry="10" fill="url(#shine)"/>
  
  <!-- Top surface highlight line -->
  <rect x="140" y="216" width="232" height="4" rx="2" ry="2" fill="#fef3c7" opacity="0.35"/>

  <!-- Anvil horn (tapered left extension) -->
  <path d="M74,224 Q74,214 84,214 L134,214 L134,246 L84,246 Q74,246 74,236 Z" fill="url(#brand)"/>
  <!-- Horn highlight -->
  <rect x="82" y="218" width="46" height="4" rx="2" fill="#fef3c7" opacity="0.2"/>

  <!-- Anvil heel (right extension, blocky) -->
  <rect x="378" y="218" width="44" height="28" rx="6" ry="6" fill="url(#brand)"/>

  <!-- Anvil body / waist (narrower middle section) -->
  <rect x="180" y="252" width="152" height="64" rx="6" ry="6" fill="url(#brand)"/>

  <!-- Anvil base (wide, stable bottom) -->
  <rect x="144" y="316" width="224" height="36" rx="8" ry="8" fill="url(#brandDark)"/>
  
  <!-- Base bottom edge (even darker for depth) -->
  <rect x="156" y="340" width="200" height="12" rx="4" ry="4" fill="#7c2d12" opacity="0.4"/>

  <!-- Anvil body side shading (left) -->
  <rect x="180" y="252" width="12" height="64" rx="3" fill="#000" opacity="0.12"/>
  
  <!-- Anvil body highlight (right) -->
  <rect x="310" y="258" width="16" height="52" rx="4" fill="#fef3c7" opacity="0.06"/>

  <!-- ==================== -->
  <!-- QR FINDER EYES       -->
  <!-- (integrated into     -->
  <!--  the composition)    -->
  <!-- ==================== -->

  <!-- Finder Eye - Top Left (above anvil horn) -->
  <g>
    <rect x="68" y="68" width="96" height="96" rx="18" ry="18" fill="url(#brand)"/>
    <rect x="84" y="84" width="64" height="64" rx="11" ry="11" fill="#0c0c10"/>
    <rect x="100" y="100" width="32" height="32" rx="7" ry="7" fill="url(#brand)"/>
  </g>

  <!-- Finder Eye - Top Right -->
  <g>
    <rect x="348" y="68" width="96" height="96" rx="18" ry="18" fill="url(#brand)"/>
    <rect x="364" y="84" width="64" height="64" rx="11" ry="11" fill="#0c0c10"/>
    <rect x="380" y="100" width="32" height="32" rx="7" ry="7" fill="url(#brand)"/>
  </g>

  <!-- Finder Eye - Bottom Left (below anvil, left) -->
  <g>
    <rect x="68" y="370" width="80" height="80" rx="16" ry="16" fill="url(#brand)"/>
    <rect x="82" y="384" width="52" height="52" rx="9" ry="9" fill="#0c0c10"/>
    <rect x="95" y="397" width="26" height="26" rx="6" ry="6" fill="url(#brand)"/>
  </g>

  <!-- ==================== -->
  <!-- SPARKS               -->
  <!-- ==================== -->
  <g filter="url(#glow)">
    <!-- Large sparks -->
    <rect x="244" y="176" width="14" height="14" rx="7" fill="#fef3c7" opacity="0.95"/>
    <rect x="286" y="184" width="10" height="10" rx="5" fill="#fcd34d" opacity="0.85"/>
    <rect x="218" y="184" width="10" height="10" rx="5" fill="#fbbf24" opacity="0.75"/>
    
    <!-- Medium sparks -->
    <rect x="268" y="166" width="8" height="8" rx="4" fill="#fef3c7" opacity="0.8"/>
    <rect x="306" y="176" width="8" height="8" rx="4" fill="#f59e0b" opacity="0.65"/>
    <rect x="200" y="172" width="8" height="8" rx="4" fill="#fbbf24" opacity="0.6"/>
    <rect x="322" y="190" width="8" height="8" rx="4" fill="#fcd34d" opacity="0.5"/>
    
    <!-- Small sparks (trailing upward) -->
    <rect x="254" y="152" width="6" height="6" rx="3" fill="#fef3c7" opacity="0.6"/>
    <rect x="280" y="148" width="5" height="5" rx="2.5" fill="#fcd34d" opacity="0.45"/>
    <rect x="234" y="156" width="5" height="5" rx="2.5" fill="#fbbf24" opacity="0.4"/>
    <rect x="298" y="158" width="4" height="4" rx="2" fill="#fef3c7" opacity="0.35"/>
    <rect x="212" y="160" width="4" height="4" rx="2" fill="#f59e0b" opacity="0.3"/>
    
    <!-- Tiny sparks (highest, fading) -->
    <rect x="262" y="136" width="4" height="4" rx="2" fill="#fef3c7" opacity="0.35"/>
    <rect x="244" y="140" width="3" height="3" rx="1.5" fill="#fcd34d" opacity="0.25"/>
    <rect x="288" y="138" width="3" height="3" rx="1.5" fill="#fbbf24" opacity="0.2"/>
  </g>

  <!-- ==================== -->
  <!-- QR DATA DOTS         -->
  <!-- (around the anvil,   -->
  <!--  reinforcing QR)     -->
  <!-- ==================== -->
  
  <!-- Dots between top eyes -->
  <rect x="184" y="80" width="16" height="16" rx="4" fill="url(#brand)" opacity="0.25"/>
  <rect x="210" y="80" width="16" height="16" rx="4" fill="url(#brand)" opacity="0.15"/>
  <rect x="210" y="106" width="16" height="16" rx="4" fill="url(#brand)" opacity="0.2"/>
  <rect x="236" y="106" width="16" height="16" rx="4" fill="url(#brand)" opacity="0.12"/>
  <rect x="290" y="80" width="16" height="16" rx="4" fill="url(#brand)" opacity="0.2"/>
  <rect x="316" y="80" width="16" height="16" rx="4" fill="url(#brand)" opacity="0.15"/>
  <rect x="264" y="106" width="16" height="16" rx="4" fill="url(#brand)" opacity="0.18"/>
  <rect x="316" y="106" width="16" height="16" rx="4" fill="url(#brand)" opacity="0.12"/>
  
  <!-- Dots right of anvil -->
  <rect x="432" y="230" width="16" height="16" rx="4" fill="url(#brand)" opacity="0.2"/>
  <rect x="432" y="256" width="16" height="16" rx="4" fill="url(#brand)" opacity="0.15"/>
  <rect x="432" y="308" width="16" height="16" rx="4" fill="url(#brand)" opacity="0.18"/>
  <rect x="432" y="334" width="16" height="16" rx="4" fill="url(#brand)" opacity="0.12"/>

  <!-- Dots below anvil -->
  <rect x="180" y="368" width="16" height="16" rx="4" fill="url(#brand)" opacity="0.2"/>
  <rect x="206" y="368" width="16" height="16" rx="4" fill="url(#brand)" opacity="0.12"/>
  <rect x="258" y="368" width="16" height="16" rx="4" fill="url(#brand)" opacity="0.18"/>
  <rect x="310" y="368" width="16" height="16" rx="4" fill="url(#brand)" opacity="0.15"/>
  <rect x="362" y="368" width="16" height="16" rx="4" fill="url(#brand)" opacity="0.22"/>
  
  <rect x="206" y="394" width="16" height="16" rx="4" fill="url(#brand)" opacity="0.15"/>
  <rect x="258" y="394" width="16" height="16" rx="4" fill="url(#brand)" opacity="0.12"/>
  <rect x="336" y="394" width="16" height="16" rx="4" fill="url(#brand)" opacity="0.2"/>
  <rect x="388" y="394" width="16" height="16" rx="4" fill="url(#brand)" opacity="0.15"/>
  <rect x="414" y="394" width="16" height="16" rx="4" fill="url(#brand)" opacity="0.1"/>
  
  <rect x="180" y="420" width="16" height="16" rx="4" fill="url(#brand)" opacity="0.12"/>
  <rect x="232" y="420" width="16" height="16" rx="4" fill="url(#brand)" opacity="0.18"/>
  <rect x="284" y="420" width="16" height="16" rx="4" fill="url(#brand)" opacity="0.1"/>
  <rect x="362" y="420" width="16" height="16" rx="4" fill="url(#brand)" opacity="0.15"/>
  <rect x="414" y="420" width="16" height="16" rx="4" fill="url(#brand)" opacity="0.2"/>

  <!-- Bottom right cluster -->
  <rect x="310" y="420" width="16" height="16" rx="4" fill="url(#brand)" opacity="0.12"/>
  <rect x="336" y="420" width="16" height="16" rx="4" fill="url(#brand)" opacity="0.18"/>
  <rect x="388" y="420" width="16" height="16" rx="4" fill="url(#brand)" opacity="0.12"/>
  
  <rect x="258" y="446" width="16" height="16" rx="4" fill="url(#brand)" opacity="0.15"/>
  <rect x="310" y="446" width="16" height="16" rx="4" fill="url(#brand)" opacity="0.1"/>
  <rect x="362" y="446" width="16" height="16" rx="4" fill="url(#brand)" opacity="0.18"/>
  <rect x="414" y="446" width="16" height="16" rx="4" fill="url(#brand)" opacity="0.12"/>
</svg>
